<svg width="15" height="15" viewBox="0 0 15 15" fill="none" xmlns="http://www.w3.org/2000/svg">
<circle cx="7.5" cy="7.5" r="7.5" fill="black"/>
<path d="M3.57459 3.57504C3.66248 3.48725 3.78162 3.43795 3.90584 3.43795C4.03006 3.43795 4.1492 3.48725 4.23709 3.57504L7.49959 6.83754L10.7621 3.57504C10.8194 3.51333 10.8923 3.46823 10.973 3.44447C11.0538 3.42071 11.1395 3.41918 11.2211 3.44004C11.3027 3.46089 11.3771 3.50337 11.4366 3.56299C11.496 3.6226 11.5383 3.69715 11.559 3.77879C11.5798 3.86027 11.5784 3.94588 11.5547 4.02661C11.5311 4.10733 11.4861 4.1802 11.4246 4.23754L8.16209 7.50004L11.4246 10.7625C11.4863 10.8198 11.5314 10.8927 11.5552 10.9735C11.5789 11.0543 11.5804 11.14 11.5596 11.2215C11.5387 11.3031 11.4963 11.3776 11.4366 11.437C11.377 11.4965 11.3025 11.5388 11.2208 11.5594C11.1394 11.5803 11.0537 11.5788 10.973 11.5552C10.8923 11.5315 10.8194 11.4866 10.7621 11.425L7.49959 8.16254L4.23709 11.425C4.14817 11.5078 4.03064 11.5529 3.90919 11.5508C3.78775 11.5487 3.67184 11.4996 3.58584 11.4138C3.50006 11.3278 3.45096 11.2119 3.44887 11.0904C3.44677 10.969 3.49183 10.8514 3.57459 10.7625L6.83709 7.50004L3.57459 4.23754C3.48681 4.14965 3.4375 4.03051 3.4375 3.90629C3.4375 3.78207 3.48681 3.66293 3.57459 3.57504Z" fill="white"/>
</svg>
