<svg width="11" height="11" viewBox="0 0 11 11" fill="none" xmlns="http://www.w3.org/2000/svg">
<path d="M5.50039 10.0833C4.92747 10.0833 4.39084 9.97448 3.8905 9.75677C3.39015 9.53907 2.95473 9.24497 2.58424 8.87448C2.21376 8.504 1.91966 8.06858 1.70195 7.56823C1.48424 7.06789 1.37539 6.53125 1.37539 5.95834C1.37539 5.38542 1.48424 4.84879 1.70195 4.34844C1.91966 3.84809 2.21376 3.41268 2.58424 3.04219C2.95473 2.67171 3.39015 2.37761 3.8905 2.1599C4.39084 1.94219 4.92747 1.83334 5.50039 1.83334C6.07331 1.83334 6.60994 1.94219 7.11029 2.1599C7.61063 2.37761 8.04605 2.67171 8.41654 3.04219C8.78702 3.41268 9.08112 3.84809 9.29883 4.34844C9.51654 4.84879 9.62539 5.38542 9.62539 5.95834C9.62539 6.53125 9.51654 7.06789 9.29883 7.56823C9.08112 8.06858 8.78702 8.504 8.41654 8.87448C8.04605 9.24497 7.61063 9.53907 7.11029 9.75677C6.60994 9.97448 6.07331 10.0833 5.50039 10.0833ZM6.78372 7.88334L7.42539 7.24167L5.95872 5.775V3.66667H5.04206V6.14167L6.78372 7.88334ZM2.56706 1.07709L3.20872 1.71875L1.26081 3.66667L0.619141 3.025L2.56706 1.07709ZM8.43372 1.07709L10.3816 3.025L9.73997 3.66667L7.79206 1.71875L8.43372 1.07709Z" fill="black"/>
</svg>
