<svg width="31" height="31" viewBox="0 0 31 31" fill="none" xmlns="http://www.w3.org/2000/svg">
<path d="M13.4594 5.24019L3.158 22.7595C2.94561 23.1342 2.83323 23.559 2.83204 23.9917C2.83085 24.4243 2.94089 24.8498 3.15122 25.2257C3.36155 25.6016 3.66483 25.9148 4.03089 26.1343C4.39695 26.3537 4.81303 26.4717 5.23773 26.4764H25.8404C26.2651 26.4717 26.6812 26.3537 27.0473 26.1343C27.4133 25.9148 27.7166 25.6016 27.9269 25.2257C28.1373 24.8498 28.2473 24.4243 28.2461 23.9917C28.2449 23.559 28.1326 23.1342 27.9202 22.7595L17.6188 5.24019C17.402 4.87606 17.0967 4.575 16.7324 4.36606C16.3681 4.15713 15.9571 4.04736 15.5391 4.04736C15.121 4.04736 14.71 4.15713 14.3457 4.36606C13.9814 4.575 13.6762 4.87606 13.4594 5.24019V5.24019Z" stroke="#0F172A" stroke-width="2.25" stroke-linecap="round" stroke-linejoin="round"/>
<path d="M15.5391 11.6094V16.5653" stroke="#0F172A" stroke-width="2.25" stroke-linecap="round" stroke-linejoin="round"/>
<path d="M15.5391 21.521H15.5512" stroke="#0F172A" stroke-width="2.25" stroke-linecap="round" stroke-linejoin="round"/>
</svg>
