<svg width="20" height="20" viewBox="0 0 20 20" fill="none" xmlns="http://www.w3.org/2000/svg">
<circle cx="10" cy="10" r="10" fill="black"/>
<path d="M4.76677 4.76684C4.88396 4.64979 5.04281 4.58405 5.20843 4.58405C5.37406 4.58405 5.53291 4.64979 5.6501 4.76684L10.0001 9.11684L14.3501 4.76684C14.4265 4.68457 14.5237 4.62442 14.6314 4.59275C14.7391 4.56107 14.8533 4.55903 14.9621 4.58684C15.0709 4.61465 15.1701 4.67128 15.2494 4.75077C15.3287 4.83026 15.3851 4.92966 15.4126 5.0385C15.4404 5.14715 15.4385 5.26129 15.407 5.36893C15.3754 5.47657 15.3155 5.57372 15.2334 5.65017L10.8834 10.0002L15.2334 14.3502C15.3157 14.4266 15.3758 14.5237 15.4075 14.6314C15.4392 14.7391 15.4412 14.8534 15.4134 14.9622C15.3856 15.0709 15.329 15.1702 15.2495 15.2495C15.17 15.3288 15.0706 15.3851 14.9618 15.4127C14.8531 15.4405 14.739 15.4386 14.6313 15.407C14.5237 15.3755 14.4266 15.3156 14.3501 15.2335L10.0001 10.8835L5.6501 15.2335C5.53155 15.3438 5.37484 15.4039 5.21291 15.4011C5.05098 15.3983 4.89644 15.3329 4.78177 15.2185C4.6674 15.1038 4.60194 14.9493 4.59914 14.7874C4.59634 14.6254 4.65643 14.4687 4.76677 14.3502L9.11677 10.0002L4.76677 5.65017C4.64973 5.53298 4.58398 5.37413 4.58398 5.2085C4.58398 5.04288 4.64973 4.88402 4.76677 4.76684Z" fill="white"/>
</svg>
