<svg width="30" height="30" viewBox="0 0 30 30" fill="none" xmlns="http://www.w3.org/2000/svg">
<path d="M15 27.5C13.4375 27.5 11.974 27.2031 10.6094 26.6094C9.24479 26.0156 8.05729 25.2135 7.04688 24.2031C6.03646 23.1927 5.23438 22.0052 4.64063 20.6406C4.04688 19.276 3.75 17.8125 3.75 16.25C3.75 14.6875 4.04688 13.224 4.64063 11.8594C5.23438 10.4948 6.03646 9.30729 7.04688 8.29687C8.05729 7.28646 9.24479 6.48437 10.6094 5.89062C11.974 5.29687 13.4375 5 15 5C16.5625 5 18.026 5.29687 19.3906 5.89062C20.7552 6.48437 21.9427 7.28646 22.9531 8.29687C23.9635 9.30729 24.7656 10.4948 25.3594 11.8594C25.9531 13.224 26.25 14.6875 26.25 16.25C26.25 17.8125 25.9531 19.276 25.3594 20.6406C24.7656 22.0052 23.9635 23.1927 22.9531 24.2031C21.9427 25.2135 20.7552 26.0156 19.3906 26.6094C18.026 27.2031 16.5625 27.5 15 27.5ZM18.5 21.5L20.25 19.75L16.25 15.75V10H13.75V16.75L18.5 21.5ZM7 2.9375L8.75 4.6875L3.4375 10L1.6875 8.25L7 2.9375ZM23 2.9375L28.3125 8.25L26.5625 10L21.25 4.6875L23 2.9375Z" fill="white"/>
</svg>
