<svg width="22" height="25" viewBox="0 0 22 25" fill="none" xmlns="http://www.w3.org/2000/svg">
<path d="M10.9997 22.9167C10.7858 22.9167 10.6025 22.8473 10.4497 22.7084C10.2969 22.5695 10.1823 22.3872 10.1059 22.1615C9.81565 21.1893 9.44898 20.2778 9.00592 19.4271C8.57815 18.5764 7.97467 17.5782 7.19551 16.4323C6.41634 15.2865 5.78231 14.1927 5.29342 13.1511C4.81981 12.1094 4.58301 10.8507 4.58301 9.37504C4.58301 7.34379 5.20176 5.62504 6.43926 4.21879C7.69204 2.79518 9.21217 2.08337 10.9997 2.08337C12.7872 2.08337 14.2997 2.79518 15.5372 4.21879C16.79 5.62504 17.4163 7.34379 17.4163 9.37504C17.4163 10.9549 17.149 12.2743 16.6143 13.3334C16.0948 14.375 15.4913 15.408 14.8038 16.4323C13.9788 17.6823 13.3525 18.724 12.9247 19.5573C12.5122 20.3733 12.1684 21.2414 11.8934 22.1615C11.817 22.4046 11.6948 22.5955 11.5268 22.7344C11.374 22.8559 11.1983 22.9167 10.9997 22.9167ZM10.9997 11.9792C11.6413 11.9792 12.1837 11.7275 12.6268 11.224C13.0698 10.7205 13.2913 10.1042 13.2913 9.37504C13.2913 8.64587 13.0698 8.02955 12.6268 7.52608C12.1837 7.02261 11.6413 6.77087 10.9997 6.77087C10.358 6.77087 9.81565 7.02261 9.37259 7.52608C8.92954 8.02955 8.70801 8.64587 8.70801 9.37504C8.70801 10.1042 8.92954 10.7205 9.37259 11.224C9.81565 11.7275 10.358 11.9792 10.9997 11.9792Z" fill="#1D1B20"/>
</svg>
