<svg width="11" height="11" viewBox="0 0 11 11" fill="none" xmlns="http://www.w3.org/2000/svg">
<path d="M5.49935 10.0833C5.3924 10.0833 5.30074 10.0528 5.22435 9.99167C5.14796 9.93056 5.09067 9.85035 5.05247 9.75105C4.90734 9.32327 4.724 8.92223 4.50247 8.54792C4.28858 8.17362 3.98685 7.73438 3.59727 7.23021C3.20768 6.72605 2.89067 6.2448 2.64622 5.78646C2.40942 5.32813 2.29102 4.77431 2.29102 4.125C2.29102 3.23125 2.60039 2.475 3.21914 1.85625C3.84553 1.22987 4.6056 0.916672 5.49935 0.916672C6.3931 0.916672 7.14935 1.22987 7.7681 1.85625C8.39449 2.475 8.70768 3.23125 8.70768 4.125C8.70768 4.82014 8.574 5.4007 8.30664 5.86667C8.04692 6.32501 7.74518 6.77952 7.40143 7.23021C6.98893 7.78021 6.67574 8.23855 6.46185 8.60521C6.2556 8.96424 6.08372 9.34619 5.94622 9.75105C5.90803 9.85799 5.84692 9.94202 5.76289 10.0031C5.6865 10.0566 5.59865 10.0833 5.49935 10.0833ZM5.49935 5.27084C5.82018 5.27084 6.09136 5.16007 6.31289 4.93855C6.53442 4.71702 6.64518 4.44584 6.64518 4.125C6.64518 3.80417 6.53442 3.53299 6.31289 3.31146C6.09136 3.08994 5.82018 2.97917 5.49935 2.97917C5.17852 2.97917 4.90733 3.08994 4.68581 3.31146C4.46428 3.53299 4.35352 3.80417 4.35352 4.125C4.35352 4.44584 4.46428 4.71702 4.68581 4.93855C4.90733 5.16007 5.17852 5.27084 5.49935 5.27084Z" fill="#1D1B20"/>
</svg>
