<svg width="16" height="17" viewBox="0 0 16 17" fill="none" xmlns="http://www.w3.org/2000/svg">
<path d="M8.00016 15.1666C7.84461 15.1666 7.71127 15.1221 7.60016 15.0333C7.48905 14.9444 7.40572 14.8277 7.35016 14.6833C7.13905 14.061 6.87238 13.4777 6.55016 12.9333C6.23905 12.3888 5.80016 11.7499 5.2335 11.0166C4.66683 10.2833 4.20572 9.58325 3.85016 8.91659C3.50572 8.24992 3.3335 7.44436 3.3335 6.49992C3.3335 5.19992 3.7835 4.09992 4.6835 3.19992C5.59461 2.28881 6.70016 1.83325 8.00016 1.83325C9.30016 1.83325 10.4002 2.28881 11.3002 3.19992C12.2113 4.09992 12.6668 5.19992 12.6668 6.49992C12.6668 7.51103 12.4724 8.35547 12.0835 9.03325C11.7057 9.69992 11.2668 10.361 10.7668 11.0166C10.1668 11.8166 9.71127 12.4833 9.40016 13.0166C9.10016 13.5388 8.85016 14.0944 8.65016 14.6833C8.59461 14.8388 8.50572 14.961 8.3835 15.0499C8.27238 15.1277 8.14461 15.1666 8.00016 15.1666ZM8.00016 8.16659C8.46683 8.16659 8.86127 8.00547 9.1835 7.68325C9.50572 7.36103 9.66683 6.96659 9.66683 6.49992C9.66683 6.03325 9.50572 5.63881 9.1835 5.31658C8.86127 4.99436 8.46683 4.83325 8.00016 4.83325C7.5335 4.83325 7.13905 4.99436 6.81683 5.31658C6.49461 5.63881 6.3335 6.03325 6.3335 6.49992C6.3335 6.96659 6.49461 7.36103 6.81683 7.68325C7.13905 8.00547 7.5335 8.16659 8.00016 8.16659Z" fill="#1D1B20"/>
</svg>
