<svg width="205" height="43" viewBox="0 0 205 43" fill="none" xmlns="http://www.w3.org/2000/svg">
<path d="M42.2433 9.70058C47.5171 9.5687 51.0807 12.1409 52.2844 13.5492C52.4577 13.6943 52.583 13.9098 52.675 14.0951C52.7881 14.3232 52.8985 14.6065 53.0041 14.9213C53.2159 15.5531 53.4275 16.3626 53.6262 17.224C54.024 18.9499 54.38 20.9322 54.5861 22.2309C54.6143 22.4087 54.594 22.617 54.5646 22.8061C54.5332 23.0081 54.482 23.2425 54.4172 23.4945C54.2872 23.9997 54.0953 24.6092 53.881 25.2416C53.4585 26.4888 52.9341 27.8555 52.5734 28.7504C52.1364 31.0432 50.2266 32.3882 48.1867 33.1459C46.1453 33.9042 43.8406 34.1292 42.3107 34.1088C39.8358 34.7027 37.5728 34.0238 35.7726 32.9623C33.9621 31.8945 32.5817 30.4207 31.8547 29.3744L31.6887 29.1361L31.757 28.9926C31.7514 28.9686 31.7456 28.938 31.7355 28.9018C31.6925 28.7467 31.6216 28.5296 31.5285 28.2514C31.3449 27.703 31.0867 26.949 30.843 26.099C30.3605 24.4166 29.906 22.2611 30.2355 20.4437C30.742 17.6513 32.3313 14.3338 33.0578 13.0258L33.0724 12.9984L33.09 12.974C33.9965 11.7292 35.7725 10.9527 37.4943 10.4701C39.2458 9.9792 41.0753 9.75683 42.2326 9.70156L42.2433 9.70058ZM86.6291 2.78555C87.8937 1.65157 89.4611 1.54057 90.55 1.78457C91.7512 1.63343 92.7315 1.78926 93.5148 2.18789C94.3199 2.59773 94.8729 3.23944 95.2375 3.96133C95.9551 5.38287 95.9684 7.15769 95.7805 8.34219L95.7795 8.35097C95.6985 8.80466 95.737 9.10849 95.8127 9.30801C95.8859 9.50058 96.0062 9.62945 96.1564 9.72012C96.4843 9.91762 96.9727 9.94002 97.3478 9.87051L97.4025 9.86074L97.4572 9.86269C99.3208 9.9326 100.497 10.687 101.176 11.6576C101.827 12.5878 101.985 13.6664 101.935 14.4018C101.995 15.96 101.412 17.0831 100.64 17.8393C99.8784 18.5848 98.9469 18.963 98.301 19.0863L98.2092 19.1039L98.1174 19.0873C97.4797 18.9709 97.0338 19.0308 96.7228 19.1615C96.4165 19.2903 96.1997 19.5058 96.0451 19.7787C95.7213 20.3507 95.687 21.157 95.7805 21.7465L95.798 21.8559L95.7678 21.9623C95.6462 22.3882 95.7898 22.7523 96.092 23.0795C96.383 23.3944 96.7872 23.6257 97.089 23.7494C98.677 23.7804 100.104 24.463 100.845 24.9447L101.124 25.14L101.189 25.1898L101.234 25.2562C102.538 27.1737 102.725 28.9318 102.383 30.3598C102.046 31.7663 101.206 32.8122 100.515 33.3568L100.499 33.3695L100.482 33.3803C99.1571 34.2588 97.3245 34.3189 95.6711 34.101C94.0475 33.8869 92.4838 33.3889 91.4953 32.9779C88.9474 32.9427 87.2593 31.5991 86.2082 29.9652C85.1557 28.329 84.7235 26.3838 84.6428 25.0844L84.632 24.9115L84.7306 24.7689C84.9213 24.4936 85.072 24.0849 85.175 23.5668C85.2767 23.055 85.3253 22.4697 85.3371 21.8676C85.3573 20.835 85.2628 19.7856 85.1584 19.0307C83.4326 18.7188 82.3379 18.0092 81.6916 17.1742C81.0472 16.3415 80.8841 15.4254 80.9465 14.768C80.5019 13.2263 81.1288 11.9616 82.0226 11.0531C82.8051 10.2579 83.8223 9.69516 84.6291 9.37344C84.5167 5.96548 85.3691 3.91549 86.6291 2.78555ZM134.46 9.86172C136.202 9.6861 138.017 10.0173 139.563 10.4877C141.119 10.9614 142.439 11.5879 143.191 12.0297L143.215 12.0443L143.237 12.0609C143.776 12.4649 144.214 13.1927 144.575 14.0092C144.945 14.8444 145.269 15.851 145.546 16.893C146.1 18.9786 146.48 21.2626 146.661 22.7318L146.671 22.807L146.657 22.8822C146.15 25.6815 144.248 29.5425 143.374 31.1088L143.34 31.1713L143.289 31.2211C142.167 32.3301 140.689 33.0338 139.327 33.4682C137.963 33.9033 136.672 34.0812 135.885 34.1098L135.884 34.1088C128.252 34.621 124.756 31.4679 123.913 29.5268C123.763 29.3604 123.639 29.1531 123.537 28.9379C123.413 28.6743 123.302 28.3623 123.201 28.0228C123 27.3433 122.83 26.5103 122.689 25.643C122.405 23.9054 122.226 21.9738 122.149 20.725L122.144 20.6557L122.159 20.5873C122.529 18.9051 123.422 16.3751 123.845 15.2582C124.027 12.9828 125.996 11.6475 128.105 10.892C130.261 10.1195 132.784 9.86408 134.46 9.86172ZM164.264 10.0629C167.495 8.70574 170.44 10.212 171.614 11.2035C172.458 11.462 173.129 12.0852 173.658 12.8549C174.212 13.6611 174.643 14.6725 174.976 15.7289C175.639 17.8363 175.943 20.2218 176.023 21.7846C176.518 26.0288 176.033 28.8825 175.175 30.7328C174.329 32.5555 173.105 33.4227 172.114 33.6088C170.472 34.1357 169.122 34.2301 168.02 33.9887C166.902 33.7438 166.076 33.1623 165.489 32.4125C164.338 30.9408 164.133 28.8594 164.267 27.4281L164.299 27.0805L164.503 27.0268C164.505 27.0193 164.508 27.0112 164.51 27.0023C164.537 26.8561 164.544 26.631 164.527 26.3471C164.493 25.7874 164.376 25.1207 164.277 24.6781L164.252 24.5697L164.277 24.4613C164.822 21.9796 164.682 20.5823 164.373 19.8471C164.081 19.1536 163.657 19.067 163.44 19.0922L163.353 19.102L163.268 19.0824C163.06 19.034 162.911 19.0448 162.804 19.0775C162.698 19.1098 162.601 19.173 162.509 19.2777C162.311 19.5027 162.155 19.9015 162.065 20.4594C161.887 21.5612 162.008 23.0001 162.183 23.9984L162.193 24.0561L162.19 24.1146L161.882 29.265L161.883 29.266C161.85 30.346 161.571 31.2036 161.112 31.8656C160.654 32.5273 160.036 32.9619 159.374 33.2328C158.108 33.7512 156.654 33.6822 155.671 33.4682C153.588 33.7162 152.187 32.9896 151.316 31.9193C150.458 30.8661 150.151 29.5311 150.123 28.6205L150.113 28.308L150.273 28.224C150.278 28.2045 150.288 28.1807 150.295 28.1508C150.332 27.996 150.367 27.7648 150.396 27.4623C150.454 26.8609 150.486 26.0416 150.5 25.1303C150.528 23.3109 150.482 21.1646 150.431 19.7436L150.426 19.6049L150.493 19.4828C150.87 18.8048 151.133 17.5254 151.295 16.1205C151.454 14.7427 151.507 13.3336 151.507 12.4613V12.3744L151.535 12.2924C151.804 11.5414 152.562 11.1537 153.205 10.9506C153.851 10.7469 154.547 10.677 155.02 10.6713C157.218 10.1756 159.195 10.8174 160.091 11.2934L160.257 11.3861L160.286 11.4057C160.818 11.7781 161.488 11.7446 161.795 11.6723L164.183 10.1059L164.221 10.0805L164.264 10.0629ZM61.923 10.059C62.9974 9.82612 64.2048 9.80871 65.0051 9.86172C66.9337 9.86172 68.8749 10.8132 69.8137 11.4086C73.1583 9.88744 75.392 9.81511 76.8254 10.5424C78.291 11.2862 78.7373 12.765 78.7248 13.8705C79.2234 16.4271 78.5869 18.1528 77.4846 19.2387C76.4026 20.3044 74.9464 20.6808 73.9357 20.7103L73.8615 20.7123L73.7892 20.6928C72.249 20.2735 71.4103 20.6089 70.9484 21.057C70.4576 21.5334 70.2736 22.2487 70.2707 22.7807C70.4548 25.3746 70.4172 27.3847 70.2922 28.849C70.168 30.3025 69.9553 31.2515 69.7726 31.6996L69.7668 31.7133L69.7609 31.726C69.4178 32.4466 68.801 32.9294 68.089 33.2445C67.3801 33.5582 66.5468 33.7203 65.7072 33.7895C64.0371 33.927 62.2365 33.703 61.0763 33.4555C59.98 33.2634 59.2393 32.6074 58.7697 31.7768C58.3093 30.9619 58.1016 29.9724 58.0314 29.0463C57.9609 28.1148 58.0267 27.2064 58.1408 26.5248C58.1975 26.1859 58.2691 25.8867 58.3488 25.6625C58.3875 25.5538 58.4363 25.4392 58.4992 25.3422C58.53 25.2947 58.5759 25.2305 58.6428 25.1742C58.6594 25.0792 58.6768 24.9377 58.6887 24.7475C58.7166 24.2983 58.7206 23.6634 58.7072 22.9437C58.6809 21.53 58.5907 19.8331 58.5148 18.6811C58.4104 18.322 58.405 17.8349 58.4357 17.3441C58.4704 16.7897 58.5563 16.1418 58.6672 15.4818C58.8338 14.4905 59.0594 13.4484 59.2599 12.6107L59.4494 11.851C59.5826 11.3011 59.9572 10.9062 60.3976 10.6312C60.8377 10.3566 61.3786 10.177 61.923 10.059ZM111.736 0.0140606C112.647 -0.0382246 113.997 0.11833 115.128 0.786522C116.303 1.48108 117.209 2.71394 117.153 4.69472C117.207 5.45641 116.987 6.56261 116.182 7.51992C115.492 8.33938 114.404 9.01215 112.78 9.29043C115.482 9.6756 117.04 11.5004 117.617 12.6674L117.731 12.9174L117.755 12.9789L117.764 13.0434C118.266 17.0001 117.557 21.2646 117.138 22.9164C117.09 23.1243 117.054 23.4903 117.034 23.9799C117.015 24.4647 117.013 25.0387 117.022 25.6352C117.039 26.8271 117.101 28.0936 117.152 28.8949C117.217 29.8967 117.068 30.7047 116.746 31.3412C116.422 31.9824 115.939 32.4177 115.397 32.6947C114.375 33.216 113.159 33.1703 112.327 32.9848C110.913 33.1707 109.803 33.1328 108.979 32.9975C108.216 32.8723 107.664 32.658 107.348 32.4398C107.05 32.3193 106.845 32.0714 106.706 31.8275C106.547 31.5488 106.427 31.1981 106.331 30.8178C106.14 30.0536 106.025 29.0607 105.962 28.0053C105.835 25.8871 105.906 23.4186 106.009 21.7924L106.027 21.5121L106.181 21.4311C106.204 21.3537 106.229 21.2284 106.246 21.0502C106.282 20.6908 106.287 20.1998 106.27 19.6449C106.234 18.5398 106.112 17.2474 106.011 16.3949H106.01C105.444 13.44 106.224 11.5521 107.562 10.4486C108.308 9.83335 109.194 9.49073 110.036 9.32656C109.504 9.22871 108.954 9.05675 108.448 8.77773C107.882 8.4652 107.364 8.01531 106.998 7.38515C106.636 6.76093 106.44 5.98741 106.468 5.05019C106.365 4.15961 106.494 2.85563 107.252 1.78359C108.045 0.661417 109.461 -0.11529 111.736 0.0140606ZM3.71795 2.60976C10.4675 1.0358 17.4272 3.34426 20.1408 4.72402C21.4471 5.03733 22.5774 6.04213 23.4396 7.09023C24.3213 8.16201 24.9867 9.35639 25.3371 10.1449C26.7014 12.6203 26.4898 15.0334 25.6838 17.016C24.8851 18.9804 23.4984 20.5416 22.4484 21.3939C21.0499 22.7774 19.0069 23.4692 17.0832 23.7904C15.138 24.1152 13.238 24.0744 12.0695 23.935H12.0637C11.3003 23.8348 11.0758 24.2194 11.0588 24.2631L11.0353 24.3227L10.9982 24.3754C10.9708 24.4139 10.9121 24.5503 10.8527 24.8266C10.7978 25.0821 10.7535 25.3984 10.7199 25.7396C10.6544 26.4051 10.6311 27.1283 10.6301 27.602C10.8157 28.9979 10.6777 29.9887 10.381 30.6693C10.0908 31.335 9.63322 31.7241 9.1867 31.8305L9.18768 31.8314C9.17771 31.8342 9.16739 31.8365 9.1574 31.8393L9.15643 31.8383C6.74874 32.4956 3.87529 32.3338 2.70428 32.1693C2.69653 32.1686 2.68854 32.1682 2.68084 32.1674V32.1664C2.13354 32.1082 1.71108 31.8615 1.40447 31.4818C1.10865 31.1152 0.937256 30.6482 0.824396 30.1742C0.71062 29.6961 0.645332 29.1625 0.590021 28.6371C0.533579 28.101 0.48814 27.5741 0.413263 27.0629C0.200107 25.6073 0.267414 24.494 0.368341 23.9047C0.35671 23.8847 0.344474 23.8666 0.336115 23.85C0.273187 23.725 0.228607 23.5792 0.19549 23.4359C0.128437 23.1454 0.0837411 22.7639 0.0538883 22.3305C-0.00625642 21.4565 -0.0111778 20.2857 0.0158024 19.0131C0.0689233 16.5084 0.250111 13.5567 0.402521 11.5609C0.0334016 10.5236 -0.0376733 9.32132 0.0158024 8.2582C0.0715169 7.15173 0.262245 6.14747 0.424982 5.54922L0.430841 5.52871L0.437677 5.5082C1.08814 3.73248 2.68602 2.90007 3.55486 2.65176L3.71795 2.60976ZM133.463 18.1645C133.096 18.3788 132.707 18.8684 132.442 19.6098C132.172 20.3624 132.016 21.4115 132.14 22.8119C132.117 23.2093 132.144 23.7981 132.308 24.3715C132.477 24.9631 132.816 25.6304 133.483 25.9809L133.523 26.0014L133.565 26.015C134.054 26.1692 134.655 25.9977 135.064 25.3715C135.444 24.7879 135.658 23.8198 135.598 22.3119C135.623 21.665 135.584 20.6942 135.371 19.8646C135.264 19.4486 135.105 19.0268 134.856 18.6996C134.597 18.36 134.219 18.0961 133.715 18.0961H133.58L133.463 18.1645ZM41.2609 18.2709C40.999 18.5766 40.6397 19.1051 40.3762 19.7348C40.1214 20.3435 39.9386 21.0957 40.0646 21.8529C40.0416 22.5487 40.0814 23.5672 40.2912 24.4047C40.397 24.8269 40.5596 25.2584 40.8215 25.5746C41.0982 25.9086 41.5024 26.1219 42.0051 26.0336L42.006 26.0346C42.0092 26.0342 42.0126 26.0321 42.0158 26.0316C42.0273 26.0295 42.0394 26.0301 42.051 26.0277L42.05 26.0248C42.499 25.9525 42.9313 25.5831 43.2082 24.9633C43.4943 24.3224 43.6456 23.3671 43.5256 21.9867C43.5755 21.3882 43.5666 20.5017 43.3615 19.7377C43.2565 19.3465 43.0897 18.9466 42.8185 18.6371C42.534 18.3125 42.1394 18.0961 41.6408 18.0961H41.4113L41.2609 18.2709ZM12.6877 9.88808C12.4031 9.8609 11.9749 9.84547 11.5451 9.88613C11.121 9.92627 10.5828 10.0284 10.215 10.3178L10.1476 10.3705L10.1017 10.4428C9.82401 10.8803 9.46774 11.9941 9.71795 13.4984C9.71974 13.8634 9.74351 14.3987 9.81463 14.8734C9.85123 15.1176 9.90373 15.3702 9.98162 15.5805C10.0205 15.6852 10.073 15.799 10.1457 15.9008C10.2167 16.0001 10.334 16.1252 10.5129 16.1879L10.5314 16.1937L10.551 16.1996C11.1882 16.3669 12.1796 16.56 13.0881 16.5941C13.5401 16.6111 14.0003 16.5905 14.3957 16.4916C14.7588 16.4007 15.1508 16.2196 15.3801 15.8559C15.6215 15.5911 15.9294 15.1544 16.1515 14.6137C16.3572 14.113 16.5017 13.4995 16.4367 12.8402L16.3947 12.5551C16.3239 12.0536 16.0552 11.3631 15.4728 10.8061C14.8695 10.2291 13.9625 9.82672 12.6877 9.88808Z" fill="black"/>
<path d="M188.437 12.1379C188.56 14.2044 190.23 18.2727 191.05 20.0485L193.817 13.9138C195.292 10.9432 198.018 10.2006 199.197 10.2006C202.64 9.55486 203.501 12.407 203.501 13.9138L199.658 22.1472C199.197 22.9544 198.582 26.1295 198.428 28.1206C198.582 28.9277 197.147 31.9413 195.969 33.6096L194.585 37.9685C192.741 41.5847 189.308 41.7354 187.822 41.3587C183.979 40.713 183.979 39.26 183.979 39.0986C183.979 38.8402 184.491 37.0536 184.594 36.0312C184.287 35.224 185.363 33.2867 185.67 32.4795C185.916 31.8337 185.875 30.4884 185.824 29.8964L184.594 27.6362C183.856 26.603 183.672 25.3761 183.672 24.8917C183.979 24.5689 181.673 19.7256 181.52 19.5642C181.397 19.435 180.136 16.2816 179.521 14.721C178.415 11.1047 181.622 10.093 183.364 10.0392C185.701 9.39342 187.719 11.1693 188.437 12.1379Z" fill="#FECD24" stroke="black" stroke-width="3"/>
</svg>
