<svg width="168" height="35" viewBox="0 0 168 35" fill="none" xmlns="http://www.w3.org/2000/svg">
<path d="M1.33113 9.50733C0.731427 8.00807 1.08125 5.88411 1.33113 5.00954C1.83088 3.71018 3.12192 3.13547 3.70497 3.01053C9.1023 1.81112 14.6995 3.59358 16.8235 4.63473C18.7226 5.03453 20.2801 7.46667 20.8215 8.63276C22.9205 12.231 20.1968 15.6293 18.5726 16.8787C16.4737 18.8777 12.2841 18.961 10.4516 18.7528C9.65203 18.6528 9.28555 19.0443 9.20225 19.2525C8.9024 19.6523 8.82744 21.2515 8.82744 22.0012C9.12729 24.1001 8.36933 24.7915 7.95287 24.8748C6.05381 25.3745 3.74661 25.2496 2.8304 25.1246C1.45607 24.9997 1.58101 23.1256 1.33113 21.5014C1.13123 20.2021 1.24784 19.2942 1.33113 19.0026C0.731421 18.8027 1.08125 12.5891 1.33113 9.50733Z" fill="#8C8C8C"/>
<path d="M25.5692 16.5039C25.969 14.4049 27.235 11.8812 27.8181 10.8817C29.1174 9.18249 33.1071 8.59111 34.9396 8.50782C39.1375 8.40787 41.9361 10.3819 42.8107 11.3814C43.4104 11.7812 44.2267 15.8792 44.5598 17.8782C44.6598 18.4779 43.5187 21.3765 42.9356 22.7508C42.3359 25.9492 37.355 26.6655 34.9396 26.6239C31.1414 27.5235 27.943 24.6665 26.8186 23.1256C26.9435 22.8757 25.0694 19.1276 25.5692 16.5039Z" fill="#8C8C8C"/>
<path d="M48.5578 15.0046C48.258 14.205 48.9327 11.2565 49.3075 9.88214C49.6035 8.68274 52.1795 8.54947 53.4304 8.63276C55.0297 8.63276 56.6788 9.46568 57.3035 9.88214C62.9008 7.38338 64.2168 9.8405 64.1752 11.3814C64.9748 15.1795 62.1761 16.2124 60.6769 16.254C57.9782 15.5543 57.3035 17.2952 57.3035 18.253C57.6034 22.2511 57.1786 24.4166 56.9287 24.9997C56.0292 26.7988 52.1394 26.499 50.307 26.1241C47.3085 25.6244 48.183 20.377 48.5578 20.377C48.8577 20.377 48.6828 16.7954 48.5578 15.0046Z" fill="#8C8C8C"/>
<path d="M66.7989 12.0061C66.0992 9.90713 68.5063 8.54947 69.7974 8.13301C69.4975 2.63572 72.5877 2.01102 74.1702 2.38584C77.9683 1.88609 78.3348 5.25942 78.0433 7.00856C77.7435 8.60777 79.0845 8.7577 79.7924 8.63276C82.5911 8.73271 83.1241 10.7567 83.0408 11.7562C83.1408 13.9551 81.3334 14.838 80.4171 15.0046C78.1183 14.6048 77.8767 16.5039 78.0433 17.5034C77.7435 18.5029 78.8346 19.1692 79.4176 19.3775C80.8169 19.3775 82.083 20.0438 82.5411 20.377C84.5401 23.1756 83.0408 25.3745 82.0413 26.1241C80.1423 27.3235 76.5857 26.374 75.0448 25.7493C71.1467 25.7493 69.9223 21.9179 69.7974 20.0022C70.597 18.9027 70.3804 16.2124 70.1722 15.0046C67.1737 14.6048 66.6739 12.839 66.7989 12.0061Z" fill="#8C8C8C"/>
<path d="M87.5386 4.50981C87.4387 7.20848 90.079 7.63327 91.4117 7.50833C94.81 7.30843 95.493 5.25944 95.4098 4.25993C95.5097 1.46131 92.786 0.928238 91.4117 1.01153C87.9134 0.811629 87.372 3.26042 87.5386 4.50981Z" fill="#8C8C8C"/>
<path d="M87.1638 13.2555C86.2643 8.85766 89.6209 8.00807 91.4117 8.13301C94.1104 8.13301 95.5347 9.88215 95.9095 10.7567C96.3093 13.7553 95.7429 17.0036 95.4098 18.253C95.2098 19.0526 95.3265 21.7513 95.4098 23.0007C95.6096 25.8993 93.1609 26.0409 91.9115 25.7493C89.6126 26.0492 88.3716 25.6244 88.0384 25.3745C86.9389 25.0747 86.9972 20.0022 87.1638 17.5034C87.5636 17.3035 87.3304 14.5882 87.1638 13.2555Z" fill="#8C8C8C"/>
<path d="M101.657 12.5059C101.857 9.40739 107.237 8.63276 109.903 8.63276C112.601 8.36545 115.608 9.60419 116.774 10.257C118.174 11.2565 119.106 16.0041 119.398 18.253C118.998 20.352 117.482 23.2922 116.774 24.5C115.075 26.0992 112.235 26.5823 111.027 26.6239C104.83 27.0237 102.198 24.5416 101.657 23.2506C100.857 22.5509 100.407 18.5446 100.282 16.6288C100.582 15.3295 101.324 13.3388 101.657 12.5059Z" fill="#8C8C8C"/>
<path d="M123.271 15.8792C123.971 14.6798 124.146 11.6313 124.146 10.257C124.445 9.45737 125.936 9.25747 126.644 9.25747C128.443 8.85766 130.059 9.42405 130.642 9.75722C131.242 10.157 131.975 10.0904 132.267 10.0071L134.266 8.75771C136.764 7.7582 139.055 8.9243 139.888 9.63228C142.287 10.232 143.136 15.1296 143.261 17.5034C144.061 24.0002 141.679 26.0409 140.388 26.2491C135.19 27.8483 134.307 24.0002 134.515 21.8762C134.915 21.7763 134.682 20.3353 134.515 19.6274C135.415 15.7293 134.141 14.9213 133.391 15.0046C131.592 14.6048 131.725 17.67 132.017 19.2525L131.767 23.2506C131.667 26.349 128.643 26.4573 127.144 26.1242C123.946 26.524 123.063 24.0418 123.021 22.7508C123.421 22.5509 123.354 18.0864 123.271 15.8792Z" fill="#8C8C8C"/>
<path d="M1.33113 9.50733C0.731427 8.00807 1.08125 5.88411 1.33113 5.00954C1.83088 3.71018 3.12192 3.13547 3.70497 3.01053C9.1023 1.81112 14.6995 3.59358 16.8235 4.63473C18.7226 5.03453 20.2801 7.46667 20.8215 8.63276C22.9205 12.231 20.1968 15.6293 18.5726 16.8787C16.4737 18.8777 12.2841 18.961 10.4516 18.7528C9.65203 18.6528 9.28555 19.0443 9.20225 19.2525C8.9024 19.6523 8.82744 21.2515 8.82744 22.0012C9.12729 24.1001 8.36933 24.7915 7.95287 24.8748C6.05381 25.3745 3.74661 25.2496 2.8304 25.1246C1.45607 24.9997 1.58101 23.1256 1.33113 21.5014C1.13123 20.2021 1.24784 19.2942 1.33113 19.0026C0.731421 18.8027 1.08125 12.5891 1.33113 9.50733Z" stroke="#8C8C8C"/>
<path d="M25.5692 16.5039C25.969 14.4049 27.235 11.8812 27.8181 10.8817C29.1174 9.18249 33.1071 8.59111 34.9396 8.50782C39.1375 8.40787 41.9361 10.3819 42.8107 11.3814C43.4104 11.7812 44.2267 15.8792 44.5598 17.8782C44.6598 18.4779 43.5187 21.3765 42.9356 22.7508C42.3359 25.9492 37.355 26.6655 34.9396 26.6239C31.1414 27.5235 27.943 24.6665 26.8186 23.1256C26.9435 22.8757 25.0694 19.1276 25.5692 16.5039Z" stroke="#8C8C8C"/>
<path d="M48.5578 15.0046C48.258 14.205 48.9327 11.2565 49.3075 9.88214C49.6035 8.68274 52.1795 8.54947 53.4304 8.63276C55.0297 8.63276 56.6788 9.46568 57.3035 9.88214C62.9008 7.38338 64.2168 9.8405 64.1752 11.3814C64.9748 15.1795 62.1761 16.2124 60.6769 16.254C57.9782 15.5543 57.3035 17.2952 57.3035 18.253C57.6034 22.2511 57.1786 24.4166 56.9287 24.9997C56.0292 26.7988 52.1394 26.499 50.307 26.1241C47.3085 25.6244 48.183 20.377 48.5578 20.377C48.8577 20.377 48.6828 16.7954 48.5578 15.0046Z" stroke="#8C8C8C"/>
<path d="M66.7989 12.0061C66.0992 9.90713 68.5063 8.54947 69.7974 8.13301C69.4975 2.63572 72.5877 2.01102 74.1702 2.38584C77.9683 1.88609 78.3348 5.25942 78.0433 7.00856C77.7435 8.60777 79.0845 8.7577 79.7924 8.63276C82.5911 8.73271 83.1241 10.7567 83.0408 11.7562C83.1408 13.9551 81.3334 14.838 80.4171 15.0046C78.1183 14.6048 77.8767 16.5039 78.0433 17.5034C77.7435 18.5029 78.8346 19.1692 79.4176 19.3775C80.8169 19.3775 82.083 20.0438 82.5411 20.377C84.5401 23.1756 83.0408 25.3745 82.0413 26.1241C80.1423 27.3235 76.5857 26.374 75.0448 25.7493C71.1467 25.7493 69.9223 21.9179 69.7974 20.0022C70.597 18.9027 70.3804 16.2124 70.1722 15.0046C67.1737 14.6048 66.6739 12.839 66.7989 12.0061Z" stroke="#8C8C8C"/>
<path d="M87.5386 4.50981C87.4387 7.20848 90.079 7.63327 91.4117 7.50833C94.81 7.30843 95.493 5.25944 95.4098 4.25993C95.5097 1.46131 92.786 0.928238 91.4117 1.01153C87.9134 0.811629 87.372 3.26042 87.5386 4.50981Z" stroke="#8C8C8C"/>
<path d="M87.1638 13.2555C86.2643 8.85766 89.6209 8.00807 91.4117 8.13301C94.1104 8.13301 95.5347 9.88215 95.9095 10.7567C96.3093 13.7553 95.7429 17.0036 95.4098 18.253C95.2098 19.0526 95.3265 21.7513 95.4098 23.0007C95.6096 25.8993 93.1609 26.0409 91.9115 25.7493C89.6126 26.0492 88.3716 25.6244 88.0384 25.3745C86.9389 25.0747 86.9972 20.0022 87.1638 17.5034C87.5636 17.3035 87.3304 14.5882 87.1638 13.2555Z" stroke="#8C8C8C"/>
<path d="M101.657 12.5059C101.857 9.40739 107.237 8.63276 109.903 8.63276C112.601 8.36545 115.608 9.60419 116.774 10.257C118.174 11.2565 119.106 16.0041 119.398 18.253C118.998 20.352 117.482 23.2922 116.774 24.5C115.075 26.0992 112.235 26.5823 111.027 26.6239C104.83 27.0237 102.198 24.5416 101.657 23.2506C100.857 22.5509 100.407 18.5446 100.282 16.6288C100.582 15.3295 101.324 13.3388 101.657 12.5059Z" stroke="#8C8C8C"/>
<path d="M123.271 15.8792C123.971 14.6798 124.146 11.6313 124.146 10.257C124.445 9.45737 125.936 9.25747 126.644 9.25747C128.443 8.85766 130.059 9.42405 130.642 9.75722C131.242 10.157 131.975 10.0904 132.267 10.0071L134.266 8.75771C136.764 7.7582 139.055 8.9243 139.888 9.63228C142.287 10.232 143.136 15.1296 143.261 17.5034C144.061 24.0002 141.679 26.0409 140.388 26.2491C135.19 27.8483 134.307 24.0002 134.515 21.8762C134.915 21.7763 134.682 20.3353 134.515 19.6274C135.415 15.7293 134.141 14.9213 133.391 15.0046C131.592 14.6048 131.725 17.67 132.017 19.2525L131.767 23.2506C131.667 26.349 128.643 26.4573 127.144 26.1242C123.946 26.524 123.063 24.0418 123.021 22.7508C123.421 22.5509 123.354 18.0864 123.271 15.8792Z" stroke="#8C8C8C"/>
<path d="M108.404 18.2523C108.204 16.1533 108.904 15.2121 109.279 15.0039C110.278 15.0039 110.445 16.9196 110.403 17.8775C110.503 20.1764 109.695 20.5012 109.279 20.3763C108.479 19.9764 108.363 18.7937 108.404 18.2523Z" fill="#F7F7F7" stroke="#8C8C8C"/>
<path d="M33.5645 17.5027C33.3646 16.5032 34.0643 15.4204 34.4391 15.0039C35.5385 15.0039 35.6468 16.753 35.5635 17.6276C35.7634 19.7266 35.0638 20.3346 34.689 20.3763C33.6895 20.5762 33.5229 18.5438 33.5645 17.5027Z" fill="#F7F7F7" stroke="#8C8C8C"/>
<path d="M8.89688 11.0278C8.69698 9.92831 8.98017 9.15369 9.14676 8.90382C9.54656 8.60396 10.4794 8.61229 10.8959 8.65394C12.795 8.55399 13.4363 9.77839 13.5196 10.4031C13.7195 11.4026 13.1031 12.3188 12.77 12.652C12.3702 13.3516 10.2712 13.0268 9.2717 12.7769C8.97184 12.677 8.89688 11.5692 8.89688 11.0278Z" fill="#F7F7F7" stroke="#8C8C8C"/>
<path d="M153.755 10.0074C153.855 11.6066 155.213 14.7551 155.879 16.1294L158.128 11.3817C159.327 9.08286 161.543 8.50815 162.501 8.50815C165.299 8.00839 165.999 10.2156 165.999 11.3817L162.876 17.7536C162.501 18.3783 162.001 20.8354 161.876 22.3763C162.001 23.001 160.835 25.3332 159.877 26.6242L158.753 29.9976C157.253 32.7962 154.463 32.9128 153.255 32.6213C150.132 32.1215 150.132 30.997 150.132 30.8721C150.132 30.6722 150.548 29.2896 150.632 28.4983C150.382 27.8736 151.256 26.3743 151.506 25.7497C151.706 25.2499 151.673 24.2087 151.631 23.7506L150.632 22.0015C150.032 21.2019 149.882 20.2524 149.882 19.8775C150.132 19.6277 148.258 15.8795 148.133 15.7546C148.033 15.6546 147.009 13.2142 146.509 12.0064C145.609 9.2078 148.216 8.42486 149.632 8.38321C151.531 7.88346 153.172 9.25778 153.755 10.0074Z" fill="#8C8C8C" stroke="#8C8C8C" stroke-width="3"/>
</svg>
