<svg width="168" height="159" viewBox="0 0 168 159" fill="none" xmlns="http://www.w3.org/2000/svg">
<path d="M141.485 76.3668L140.221 21.0853C139.906 20.0751 139.498 20.2913 138.858 20.5609L90.5848 40.6986C89.338 41.0441 89.0977 42.4766 89.1334 43.1497L90.6645 101.803C90.7503 103.419 91.5906 103.333 92.2221 102.996L136.748 85.1309C139.274 83.7826 141.485 82.7714 141.485 77.041V76.3668Z" fill="#FECD24"/>
<path d="M38.3114 79.0589L36.6438 23.7896C36.6223 23.2825 37.3242 22.9532 37.9775 23.1837L87.2399 40.375C88.503 40.6446 88.8188 42.0604 88.8188 42.7345L90.3977 101.387C89.6951 102.323 92.5372 103.334 90.9583 103.334L43.5049 87.5231C40.9113 86.3294 38.6507 85.4532 38.3471 79.732L38.3114 79.0589Z" fill="#FECD24"/>
<path d="M90.0089 40.6383L92.5354 39.6252L138.975 20.5335C139.389 20.3805 140.221 20.4126 140.221 21.7609C140.221 21.0868 140.14 19.5847 138.642 19.0643L114.326 11.1428L90.011 3.22142C88.1163 2.88433 86.2216 2.88433 84.0111 3.5585L37.2732 21.4228C37.0626 21.6475 36.6416 22.5689 36.6416 24.4565C36.6414 23.896 36.8936 22.8418 37.9044 23.11L62.6949 31.8742L87.4854 40.6383C87.6812 40.7409 87.8563 40.827 88.0161 40.8968C88.3838 41.158 88.7461 41.6138 88.7461 42.3219C88.8499 41.9897 89.2419 41.1968 89.9839 40.6563C89.9922 40.6503 90.0005 40.6444 90.0089 40.6383Z" fill="#FECD24"/>
<path d="M89.9839 40.6563C89.9922 40.6503 90.0005 40.6444 90.0089 40.6383L92.5354 39.6252L138.975 20.5335M89.9839 40.6563C89.2565 41.1782 88.8426 41.2575 88.0161 40.8968M89.9839 40.6563C89.2419 41.1968 88.8499 41.9897 88.7461 42.3219C88.7461 41.6138 88.3838 41.158 88.0161 40.8968M88.0161 40.8968C87.8563 40.827 87.6812 40.7409 87.4854 40.6383M88.0161 40.8968C87.8237 40.7601 87.6297 40.6767 87.4854 40.6383M87.4854 40.6383L62.6949 31.8742M37.9044 23.11C37.261 22.8337 36.424 22.7927 37.2732 21.4228M37.9044 23.11C36.8936 22.8418 36.6414 23.896 36.6416 24.4565C36.6416 22.5689 37.0626 21.6475 37.2732 21.4228M37.9044 23.11L62.6949 31.8742M37.2732 21.4228L84.0111 3.5585C86.2216 2.88433 88.1163 2.88433 90.011 3.22142L114.326 11.1428M138.642 19.0643C139.306 19.3515 139.59 20.0372 139.271 20.4115L138.975 20.5335M138.642 19.0643C139.083 19.3782 139.748 20.0918 138.975 20.5335M138.642 19.0643C140.14 19.5847 140.221 21.0868 140.221 21.7609C140.221 20.4126 139.389 20.3805 138.975 20.5335M138.642 19.0643L138.958 20.0755L137.063 20.4115L137.379 19.4013L138.642 19.0643ZM138.642 19.0643L114.326 11.1428M62.6949 31.8742L114.326 11.1428M140.221 21.0853L141.485 76.3668V77.041C141.485 82.7714 139.274 83.7826 136.748 85.1309L92.2221 102.996C91.5906 103.333 90.7503 103.419 90.6645 101.803L89.1334 43.1497C89.0977 42.4766 89.338 41.0441 90.5848 40.6986L138.858 20.5609C139.498 20.2913 139.906 20.0751 140.221 21.0853ZM36.6438 23.7896L38.3114 79.0589L38.3471 79.732C38.6507 85.4532 40.9113 86.3294 43.5049 87.5231L90.9583 103.334C92.5372 103.334 89.6951 102.323 90.3977 101.387L88.8188 42.7345C88.8188 42.0604 88.503 40.6446 87.2399 40.375L37.9775 23.1837C37.3242 22.9532 36.6223 23.2825 36.6438 23.7896Z" stroke="black" stroke-width="5"/>
<path d="M77.9358 55.8173C77.9358 59.911 75.4402 61.9137 73.199 61.5477C70.9578 61.1818 69.6321 59.1884 70.357 54.1323C70.8317 50.8199 71.903 49.0752 74.7779 49.0757C76.9887 49.076 78.2516 52.7834 77.9358 55.8173Z" fill="black"/>
<path d="M58.4949 50.3378C58.4949 54.4315 55.9993 56.4342 53.7582 56.0682C51.517 55.7022 50.1913 53.7089 50.9162 48.6528C51.3909 45.3403 52.4622 43.5957 55.3371 43.5961C57.5479 43.5965 58.8108 47.3038 58.4949 50.3378Z" fill="black"/>
<path d="M114.929 66.3838C113.413 65.5748 114.087 63.5746 114.613 62.6757C115.561 61.6644 117.455 62.3383 118.403 63.0127C121.876 64.6981 124.192 68.9681 125.034 71.1029C125.792 72.7209 125.56 75.8221 125.35 77.1704C125.35 79.0581 122.823 80.6536 121.56 81.2154C120.045 81.4851 119.455 81.1031 119.35 80.8783C118.845 80.0693 119.034 78.8558 119.666 78.5187C120.929 77.8445 121.139 74.4738 120.929 72.7884C121.245 70.4288 116.823 67.395 114.929 66.3838Z" fill="black" stroke="black"/>
<path d="M51.4814 64.7769C51.2111 63.7045 52.2696 62.9895 52.8327 62.7661C52.8327 62.498 54.0279 62.7857 54.8162 63.0091C55.4919 63.6794 55.7606 64.7769 55.8732 65.112C56.9543 66.7207 58.1254 68.0165 58.5758 68.4633C59.9271 69.8039 61.6162 70.5858 62.2919 70.8092C63.6432 71.0774 64.8819 70.6975 65.3323 70.4741C66.9538 70.206 69.6114 67.6814 70.7375 66.4526C72.4266 65.4472 73.7779 66.4526 74.1157 66.7877C74.4535 67.1228 74.4535 68.7985 74.1157 69.8039C73.7779 70.8092 72.7644 71.4795 71.7509 72.4849C70.9402 73.2892 68.2548 74.5533 67.0162 75.1119C65.0169 75.1119 62.1992 75.5426 60.0371 74.7383C57.3346 73.7329 55.8732 72.4849 55.5354 72.1498C55.1976 71.8146 52.495 68.4633 52.1572 67.4579C51.8194 66.4526 51.8192 66.1174 51.4814 64.7769Z" fill="black"/>
<path d="M30.3974 63.7135C32.5968 67.7174 35.5295 69.052 37.7289 69.9013V75.3612C31.5705 73.9052 27.3427 67.9601 25.9986 65.1695C24.8255 63.4223 26.0759 62.2192 26.7317 61.8936C28.1976 61.1656 29.2977 62.2575 30.3974 63.7135Z" fill="black" stroke="black"/>
<path d="M59.3546 100.543C60.4198 99.2987 61.3293 96.2322 61.7122 94.3528L65.7064 95.7837C65.6819 96.0521 63.9293 101.357 63.056 103.975C62.7067 105.023 61.7201 105.869 61.2704 106.161C60.9945 106.403 59.2697 106.066 58.4417 105.867C55.2464 104.722 52.265 102.854 51.1737 102.064C50.6848 101.674 50.7926 100.444 51.0735 99.6826C51.4473 98.3667 52.7571 98.6157 53.3653 98.9046C54.5491 99.8404 56.6901 100.718 57.6126 101.039C58.5351 101.361 59.1043 100.968 59.3546 100.543Z" fill="black" stroke="black"/>
<path d="M114.145 102.16C114.182 100.475 112.981 97.5252 112.113 95.8397L116.005 94.1178C116.152 94.3373 118.095 99.5657 119.048 102.152C119.429 103.187 119.206 104.517 119.046 105.052C118.987 105.428 117.479 106.384 116.733 106.814C113.619 108.192 110.222 108.874 108.912 109.043C108.304 109.092 107.628 108.089 107.372 107.318C106.844 106.064 107.984 105.333 108.621 105.125C110.089 105 112.243 104.16 113.137 103.756C114.03 103.351 114.218 102.656 114.145 102.16Z" fill="black" stroke="black"/>
<path d="M35.2993 132.392C39.5857 132.29 42.4948 134.274 43.4976 135.384C43.6539 135.511 43.764 135.692 43.8394 135.836C43.935 136.02 44.0262 136.245 44.1128 136.491C44.2867 136.984 44.4592 137.614 44.6206 138.28C44.9442 139.615 45.2335 141.147 45.4009 142.151C45.4275 142.311 45.4076 142.49 45.3833 142.638C45.3568 142.8 45.3135 142.986 45.2603 143.182C45.1536 143.577 44.9979 144.05 44.8238 144.54C44.4823 145.499 44.059 146.548 43.7661 147.24C43.3942 149.068 41.7974 150.119 40.1451 150.703C38.4818 151.29 36.6072 151.465 35.3609 151.45C33.336 151.909 31.4864 151.38 30.0161 150.555C28.5354 149.724 27.4044 148.577 26.8062 147.758L26.6265 147.512L26.6958 147.373C26.6944 147.367 26.6936 147.362 26.6919 147.356C26.6582 147.24 26.6027 147.076 26.5269 146.861C26.3784 146.439 26.1671 145.854 25.9683 145.195C25.5766 143.895 25.1994 142.205 25.4732 140.769C25.8881 138.593 27.1849 136.019 27.7759 135.006L27.7915 134.98L27.8101 134.955C28.1971 134.449 28.7615 134.053 29.3814 133.74C30.0056 133.425 30.7174 133.179 31.4312 132.989C32.8576 132.608 34.3462 132.436 35.2886 132.393L35.2993 132.392ZM71.2339 127.08C72.2824 126.185 73.5737 126.096 74.4712 126.285C75.4492 126.17 76.2546 126.291 76.9038 126.605C77.576 126.931 78.0402 127.442 78.3462 128.019C78.9459 129.149 78.9553 130.551 78.8003 131.48L78.7984 131.491C78.7361 131.823 78.7678 132.03 78.8179 132.156C78.8656 132.275 78.9443 132.357 79.0513 132.418C79.293 132.557 79.6681 132.577 79.9644 132.525L80.0171 132.515L80.0699 132.517C81.5981 132.572 82.5798 133.162 83.1529 133.941C83.6975 134.682 83.8325 135.541 83.7915 136.134C83.8406 137.376 83.3495 138.275 82.7046 138.876C82.0711 139.466 81.2991 139.764 80.7642 139.861L80.6763 139.876L80.5894 139.861C80.082 139.773 79.7346 139.82 79.4995 139.914C79.2703 140.005 79.1117 140.156 78.9986 140.346C78.757 140.752 78.7273 141.339 78.8003 141.777L78.8189 141.892L78.7857 142.003C78.7058 142.27 78.7913 142.504 79.021 142.741C79.2401 142.966 79.5474 143.136 79.7827 143.23C81.0816 143.258 82.2467 143.788 82.856 144.166L83.0874 144.319L83.1529 144.367L83.1997 144.433C84.2756 145.938 84.4385 147.333 84.1509 148.476C83.8694 149.594 83.1701 150.422 82.5952 150.853L82.5786 150.865L82.562 150.876C81.4624 151.57 79.9526 151.612 78.6089 151.444C77.2901 151.278 76.0208 150.893 75.2134 150.575C73.1306 150.541 71.7413 149.494 70.8736 148.21C70.0055 146.927 69.6491 145.403 69.5826 144.382L69.5708 144.203L69.6773 144.056C69.818 143.863 69.9346 143.567 70.0161 143.176C70.0965 142.792 70.1366 142.349 70.146 141.889C70.1615 141.137 70.093 140.372 70.0142 139.803C68.6413 139.554 67.7513 139.009 67.2163 138.351C66.6822 137.694 66.5373 136.966 66.5845 136.427C66.2196 135.186 66.7582 134.172 67.4937 133.46C68.1174 132.857 68.9184 132.428 69.5679 132.173C69.4937 129.569 70.1893 127.971 71.2339 127.08ZM110.053 132.517C111.481 132.379 112.965 132.637 114.226 133.002C115.335 133.324 116.298 133.736 116.933 134.065L117.185 134.2L117.209 134.213L117.231 134.229C117.69 134.557 118.055 135.14 118.351 135.776C118.655 136.429 118.92 137.213 119.145 138.02C119.596 139.637 119.907 141.405 120.054 142.543L120.064 142.622L120.049 142.701C119.633 144.884 118.081 147.878 117.372 149.086L117.335 149.149L117.284 149.198C116.359 150.068 115.145 150.616 114.036 150.953C112.923 151.29 111.87 151.428 111.225 151.451L111.224 151.45C105.051 151.843 102.165 149.431 101.441 147.873C101.314 147.735 101.212 147.57 101.13 147.404C101.026 147.193 100.933 146.945 100.85 146.679C100.685 146.147 100.546 145.499 100.43 144.827C100.199 143.481 100.055 141.987 99.9917 141.02L99.9868 140.947L100.003 140.876C100.304 139.576 101.024 137.633 101.37 136.762C101.535 134.937 103.192 133.895 104.89 133.316C106.643 132.718 108.689 132.52 110.053 132.517ZM134.203 132.677C136.84 131.623 139.245 132.779 140.226 133.558C140.927 133.767 141.483 134.262 141.919 134.866C142.378 135.501 142.732 136.294 143.004 137.116C143.545 138.75 143.793 140.596 143.859 141.81C144.655 148.301 142.32 150.755 140.615 151.062C139.276 151.47 138.169 151.545 137.261 151.356C136.338 151.164 135.649 150.704 135.158 150.107C134.196 148.937 134.03 147.292 134.14 146.169L134.174 145.819L134.345 145.775C134.357 145.677 134.362 145.536 134.35 145.356C134.323 144.934 134.23 144.429 134.151 144.091L134.125 143.978L134.15 143.864C134.59 141.959 134.47 140.915 134.236 140.386C134.021 139.9 133.718 139.85 133.571 139.866L133.489 139.875L133.408 139.857C133.117 139.792 132.975 139.867 132.872 139.979C132.734 140.129 132.613 140.409 132.542 140.829C132.401 141.657 132.496 142.749 132.637 143.512L132.648 143.573L132.644 143.634L132.395 147.603L132.396 147.604C132.368 148.46 132.136 149.148 131.748 149.68C131.361 150.211 130.843 150.556 130.295 150.769C129.256 151.174 128.068 151.121 127.262 150.957C125.559 151.147 124.397 150.58 123.668 149.728C122.951 148.891 122.696 147.831 122.672 147.106L122.662 146.786L122.815 146.709L122.816 146.708C122.843 146.597 122.87 146.426 122.893 146.195C122.939 145.737 122.966 145.11 122.977 144.408C123 143.007 122.963 141.354 122.921 140.259L122.917 140.114L122.99 139.989C123.281 139.49 123.491 138.528 123.623 137.444C123.751 136.387 123.793 135.305 123.793 134.636V134.545L123.826 134.46C124.064 133.825 124.724 133.516 125.244 133.36C125.772 133.201 126.341 133.146 126.729 133.141C128.649 132.732 130.363 133.327 131.022 133.704L131.037 133.712L131.051 133.722C131.45 133.988 131.959 133.969 132.201 133.918L134.124 132.717L134.162 132.694L134.203 132.677ZM51.2408 132.67C52.1334 132.486 53.136 132.475 53.7886 132.518H53.7876C55.3354 132.528 56.8836 133.238 57.6607 133.701C60.3599 132.539 62.1851 132.476 63.3726 133.049C64.597 133.641 64.9795 134.82 64.9732 135.71C65.3805 137.715 64.8541 139.089 63.9302 139.955C63.0307 140.798 61.8275 141.091 60.9976 141.114L60.9273 141.116L60.8589 141.098C59.625 140.778 58.9758 141.04 58.6314 141.358C58.2641 141.697 58.1233 142.208 58.1197 142.591C58.2691 144.597 58.2374 146.154 58.1353 147.291C58.0342 148.416 57.8608 149.165 57.7046 149.529L57.6988 149.543L57.6919 149.555C57.3971 150.144 56.8726 150.53 56.2857 150.777C55.7 151.023 55.0154 151.15 54.3306 151.204C52.9606 151.311 51.4845 151.136 50.5396 150.943V150.942C49.6358 150.786 49.0175 150.266 48.6236 149.603C48.2368 148.952 48.0652 148.167 48.0074 147.441C47.9492 146.71 48.003 145.998 48.0972 145.462C48.144 145.197 48.2037 144.958 48.272 144.775C48.305 144.687 48.349 144.588 48.4077 144.501C48.4308 144.468 48.4649 144.425 48.5103 144.382C48.5202 144.318 48.5317 144.226 48.5396 144.105C48.5619 143.764 48.5651 143.279 48.5542 142.725C48.5331 141.643 48.4602 140.345 48.399 139.458C48.311 139.157 48.3101 138.766 48.3345 138.394C48.3631 137.96 48.4337 137.455 48.524 136.944C48.7049 135.919 48.9709 134.826 49.1607 134.13C49.2804 133.663 49.6121 133.34 49.979 133.122C50.3474 132.903 50.7956 132.762 51.2408 132.67ZM91.6431 124.921C92.391 124.881 93.4987 125.001 94.4322 125.526C95.4085 126.075 96.1739 127.06 96.1294 128.64C96.1748 129.261 95.986 130.147 95.313 130.908C94.8226 131.462 94.0973 131.924 93.0757 132.184C95.0976 132.667 96.2292 134.102 96.5874 134.937L96.6148 135.001L96.6236 135.068C97.0331 138.137 96.4567 141.437 96.1138 142.727L96.1148 142.728C96.0784 142.873 96.0495 143.146 96.0337 143.528C96.0184 143.898 96.0168 144.338 96.024 144.797C96.0383 145.714 96.0874 146.688 96.1284 147.304C96.1831 148.096 96.0597 148.745 95.7857 149.261C95.5097 149.781 95.0996 150.131 94.646 150.351C93.8013 150.761 92.8031 150.726 92.1197 150.584C90.973 150.726 90.07 150.697 89.396 150.591C88.7829 150.496 88.3258 150.332 88.0523 150.156C87.789 150.052 87.6089 149.842 87.4888 149.642C87.3515 149.413 87.2503 149.13 87.1714 148.831C87.013 148.229 86.9193 147.453 86.8677 146.636C86.7641 144.994 86.8219 143.084 86.9058 141.826L86.9243 141.541L87.062 141.47C87.074 141.42 87.0888 141.347 87.0992 141.249C87.1272 140.98 87.131 140.608 87.1167 140.182C87.0885 139.34 86.9914 138.353 86.9097 137.698C86.4419 135.376 87.0859 133.869 88.2085 132.988C88.683 132.616 89.224 132.37 89.7632 132.218C89.4843 132.14 89.2056 132.038 88.9419 131.9C88.4722 131.653 88.0357 131.294 87.7261 130.787C87.4204 130.285 87.2565 129.667 87.2779 128.926C87.1934 128.215 87.3033 127.178 87.938 126.324C88.6068 125.424 89.7852 124.822 91.6431 124.921ZM4.56595 126.818C9.88959 125.817 15.2632 127.522 17.4087 128.558C18.4881 128.809 19.4172 129.597 20.1206 130.411C20.84 131.243 21.3833 132.169 21.6724 132.787C22.8014 134.737 22.6254 136.643 21.9595 138.202C21.3062 139.73 20.1769 140.942 19.3179 141.61C18.1629 142.702 16.481 143.241 14.9136 143.49C13.329 143.742 11.781 143.709 10.8277 143.601H10.8228C10.226 143.527 10.0918 143.814 10.1021 143.789L10.0777 143.85L10.0386 143.903C10.0369 143.906 10.0239 143.927 10.0054 143.977C9.9846 144.034 9.9624 144.11 9.94095 144.205C9.89802 144.395 9.86344 144.633 9.83646 144.894C9.78384 145.403 9.76501 145.956 9.76419 146.318C10.054 148.433 9.32662 149.506 8.5181 149.689L8.51907 149.691C6.79684 150.144 4.77947 150.103 3.65872 150.001L3.21927 149.952C3.21792 149.951 3.21579 149.952 3.21439 149.952V149.951C2.75419 149.904 2.3911 149.705 2.12454 149.391C1.8681 149.089 1.7233 148.708 1.62943 148.333C1.53479 147.954 1.48095 147.535 1.43607 147.129C1.38993 146.712 1.35267 146.311 1.29251 145.92C1.12415 144.827 1.16962 143.974 1.24954 143.491C1.24798 143.488 1.24517 143.486 1.24368 143.483C1.18573 143.374 1.14679 143.25 1.11868 143.134C1.06166 142.899 1.02492 142.596 1.00052 142.259C0.951271 141.579 0.947361 140.67 0.969269 139.687C1.0122 137.761 1.15751 135.495 1.28079 133.955C0.983105 133.138 0.927 132.205 0.970246 131.387C1.01594 130.523 1.17166 129.739 1.30618 129.268L1.31204 129.247L1.31986 129.226C1.90163 127.715 3.37474 127.069 4.04642 126.924L4.56595 126.818ZM109.22 138.931C108.897 139.111 108.566 139.514 108.343 140.105C108.118 140.704 107.991 141.529 108.09 142.619C108.072 142.938 108.096 143.405 108.233 143.862C108.376 144.338 108.665 144.885 109.239 145.171L109.278 145.19L109.319 145.203C109.745 145.33 110.271 145.19 110.629 144.668C110.96 144.185 111.133 143.404 111.084 142.228C111.103 141.721 111.072 140.965 110.896 140.313C110.807 139.983 110.671 139.64 110.455 139.37C110.228 139.086 109.897 138.869 109.462 138.869H109.334L109.22 138.931ZM34.4419 139.034C34.2225 139.277 33.9242 139.696 33.7046 140.195C33.4949 140.672 33.338 141.273 33.4409 141.887C33.4228 142.431 33.455 143.225 33.6284 143.883C33.7164 144.217 33.8543 144.571 34.0835 144.834C34.3284 145.115 34.6836 145.29 35.1167 145.219L35.1177 145.221C35.1238 145.22 35.1302 145.218 35.1363 145.217C35.1441 145.216 35.1528 145.216 35.1607 145.214L35.1597 145.212C35.5547 145.15 35.9295 144.84 36.1665 144.335C36.4109 143.815 36.5337 143.054 36.4361 141.978C36.4757 141.507 36.4672 140.816 36.2974 140.213C36.2091 139.901 36.0667 139.572 35.8306 139.316C35.5812 139.045 35.2384 138.869 34.813 138.869H34.5904L34.4419 139.034ZM11.3355 132.537C11.1012 132.516 10.7536 132.504 10.4038 132.536C10.0597 132.567 9.60168 132.647 9.28177 132.886L9.21341 132.938L9.16653 133.008C8.92298 133.373 8.62968 134.263 8.83353 135.447C8.8354 135.732 8.85523 136.147 8.91361 136.518C8.9439 136.71 8.98818 136.916 9.05618 137.09C9.09014 137.177 9.13726 137.276 9.20462 137.366C9.27121 137.454 9.38164 137.566 9.54837 137.622L9.56693 137.627L9.58548 137.632C10.1055 137.762 10.9144 137.912 11.6577 137.939C12.0275 137.952 12.4086 137.937 12.7388 137.858C13.0342 137.788 13.3782 137.643 13.5874 137.333C13.7903 137.119 14.0441 136.775 14.2281 136.349C14.4221 135.9 14.5528 135.328 14.438 134.714H14.44C14.3841 134.297 14.1526 133.725 13.6509 133.268C13.1409 132.804 12.3839 132.489 11.3355 132.537Z" fill="black"/>
<path d="M153.83 134.386C153.93 135.981 155.284 139.119 155.949 140.489L158.192 135.756C159.389 133.465 161.599 132.892 162.554 132.892C165.346 132.394 166.044 134.594 166.044 135.756L162.928 142.108C162.554 142.731 162.056 145.18 161.931 146.716C162.056 147.338 160.892 149.663 159.937 150.95L158.815 154.313C157.32 157.102 154.537 157.219 153.332 156.928C150.216 156.43 150.216 155.309 150.216 155.184C150.216 154.985 150.632 153.607 150.715 152.818C150.465 152.196 151.338 150.701 151.587 150.078C151.786 149.58 151.753 148.542 151.712 148.086L150.715 146.342C150.116 145.545 149.967 144.599 149.967 144.225C150.216 143.976 148.347 140.24 148.222 140.115C148.122 140.016 147.101 137.583 146.602 136.379C145.705 133.589 148.305 132.809 149.718 132.767C151.612 132.269 153.249 133.639 153.83 134.386Z" fill="#FECD24" stroke="black" stroke-width="3"/>
</svg>
