<svg width="30" height="31" viewBox="0 0 30 31" fill="none" xmlns="http://www.w3.org/2000/svg">
<path d="M12.7855 5.13851L2.48417 22.6578C2.27178 23.0325 2.1594 23.4573 2.15821 23.89C2.15702 24.3227 2.26707 24.7481 2.47739 25.124C2.68772 25.4999 2.991 25.8132 3.35706 26.0326C3.72312 26.252 4.1392 26.37 4.5639 26.3747H25.1666C25.5913 26.37 26.0074 26.252 26.3734 26.0326C26.7395 25.8132 27.0428 25.4999 27.2531 25.124C27.4634 24.7481 27.5735 24.3227 27.5723 23.89C27.5711 23.4573 27.4587 23.0325 27.2463 22.6578L16.945 5.13851C16.7282 4.77438 16.4229 4.47332 16.0586 4.26438C15.6943 4.05544 15.2833 3.94568 14.8653 3.94568C14.4472 3.94568 14.0362 4.05544 13.6719 4.26438C13.3076 4.47332 13.0023 4.77438 12.7855 5.13851V5.13851Z" stroke="#0F172A" stroke-width="2.25" stroke-linecap="round" stroke-linejoin="round"/>
<path d="M14.8652 11.5076V16.4635" stroke="#0F172A" stroke-width="2.25" stroke-linecap="round" stroke-linejoin="round"/>
<path d="M14.8652 21.4194H14.8774" stroke="#0F172A" stroke-width="2.25" stroke-linecap="round" stroke-linejoin="round"/>
</svg>
