<svg width="23" height="26" viewBox="0 0 23 26" fill="none" xmlns="http://www.w3.org/2000/svg">
<path d="M21.4988 19.8823L21.2542 9.85444C21.1931 9.67118 21.1141 9.71041 20.9901 9.75932L11.6433 13.4122C11.4018 13.4749 11.3553 13.7348 11.3622 13.8568L11.6587 24.4965C11.6753 24.7895 11.838 24.774 11.9603 24.7128L20.5816 21.4721C21.0708 21.2275 21.4988 21.0441 21.4988 20.0046L21.4988 19.8823Z" fill="#FECD24" stroke="black"/>
<path d="M1.52025 20.3704L1.19736 10.3447C1.19319 10.2527 1.3291 10.193 1.4556 10.2348L10.9941 13.3532C11.2387 13.4021 11.2998 13.659 11.2998 13.7812L11.6055 24.4206C11.4695 24.5904 12.0198 24.7739 11.7141 24.7739L2.52585 21.9057C2.02365 21.6892 1.58595 21.5303 1.52717 20.4925L1.52025 20.3704Z" fill="#FECD24" stroke="black"/>
<path d="M11.531 13.4011L12.0202 13.2173L21.012 9.75414C21.0923 9.72638 21.2533 9.7322 21.2533 9.97679C21.2533 9.8545 21.2376 9.58203 20.9476 9.48762L16.2395 8.05069L11.5314 6.61377C11.1645 6.55263 10.7976 6.55263 10.3696 6.67492L1.31993 9.91545C1.27917 9.95621 1.19764 10.1233 1.19764 10.4658C1.1976 10.3641 1.24644 10.1729 1.44215 10.2215L6.24225 11.8113L11.0423 13.4011C11.0803 13.4197 11.1142 13.4353 11.1451 13.448C11.2163 13.4953 11.2864 13.578 11.2864 13.7065C11.3065 13.6463 11.3822 13.5028 11.5255 13.4047C11.5273 13.4035 11.5291 13.4023 11.531 13.4011Z" fill="#FECD24"/>
<path d="M11.531 13.4011L12.0202 13.2173L21.012 9.75414M11.531 13.4011C11.3596 13.5173 11.2786 13.517 11.0423 13.4011M11.531 13.4011C11.3842 13.4992 11.3068 13.6456 11.2864 13.7065C11.2864 13.5108 11.1237 13.4214 11.0423 13.4011M11.0423 13.4011L6.24225 11.8113M1.44215 10.2215C1.31758 10.1714 1.15551 10.1639 1.31993 9.91545M1.44215 10.2215C1.24644 10.1729 1.1976 10.3641 1.19764 10.4658C1.19764 10.1233 1.27917 9.95621 1.31993 9.91545M1.44215 10.2215L6.24225 11.8113M1.31993 9.91545L10.3696 6.67492C10.7976 6.55263 11.1645 6.55263 11.5314 6.61377L16.2395 8.05069M20.9476 9.48762C21.0762 9.53973 21.1312 9.66411 21.0695 9.73201L21.012 9.75414M20.9476 9.48762C21.033 9.54456 21.1617 9.67401 21.012 9.75414M20.9476 9.48762C21.2376 9.58203 21.2533 9.8545 21.2533 9.97679C21.2533 9.7322 21.0923 9.72638 21.012 9.75414M20.9476 9.48762L21.0087 9.67105L20.6418 9.73201L20.703 9.54876L20.9476 9.48762ZM20.9476 9.48762L16.2395 8.05069M6.24225 11.8113L16.2395 8.05069" stroke="black"/>
<path d="M8.89208 16.3767C8.89208 17.1193 8.40887 17.4826 7.97492 17.4162C7.54097 17.3498 7.28427 16.9882 7.42463 16.0711C7.51655 15.4702 7.72398 15.1537 8.28064 15.1538C8.7087 15.1539 8.95323 15.8264 8.89208 16.3767Z" fill="black"/>
<path d="M4.73388 15.031C4.73388 15.7736 4.25066 16.1369 3.81671 16.0705C3.38276 16.0041 3.12606 15.6425 3.26643 14.7253C3.35835 14.1245 3.56577 13.808 4.12244 13.8081C4.5505 13.8081 4.79503 14.4807 4.73388 15.031Z" fill="black"/>
<path d="M4.06449 18.119C4.01558 17.9234 4.20716 17.7929 4.30907 17.7522C4.30907 17.7032 4.5254 17.7557 4.66808 17.7965C4.79037 17.9188 4.83902 18.119 4.8594 18.1802C5.05506 18.4737 5.26703 18.7101 5.34855 18.7916C5.59313 19.0362 5.89885 19.1789 6.02114 19.2197C6.26572 19.2686 6.48991 19.1993 6.57144 19.1585C6.86493 19.1096 7.34593 18.649 7.54974 18.4248C7.85547 18.2413 8.10004 18.4248 8.16119 18.4859C8.22233 18.5471 8.22233 18.8528 8.16119 19.0362C8.10004 19.2197 7.91661 19.3419 7.73318 19.5254C7.58643 19.6721 7.10135 19.9126 6.87716 20.0145C6.63258 20.0757 6.0456 20.1613 5.65427 20.0145C5.16512 19.8311 4.8594 19.5254 4.79825 19.4642C4.73711 19.4031 4.24796 18.7916 4.18681 18.6082C4.12567 18.4248 4.12564 18.3636 4.06449 18.119Z" fill="black" stroke="black"/>
</svg>
