<svg width="23" height="26" viewBox="0 0 23 26" fill="none" xmlns="http://www.w3.org/2000/svg">
<path d="M21.4988 19.8821L21.2542 9.8542C21.1931 9.67094 21.1141 9.71016 20.9901 9.75908L11.6433 13.412C11.4018 13.4747 11.3553 13.7345 11.3622 13.8566L11.6587 24.4962C11.6753 24.7892 11.838 24.7737 11.9603 24.7126L20.5816 21.4719C21.0708 21.2273 21.4988 21.0439 21.4988 20.0044L21.4988 19.8821Z" fill="#F1F1F1" stroke="black"/>
<path d="M1.52025 20.3701L1.19736 10.3444C1.19319 10.2525 1.3291 10.1927 1.4556 10.2345L10.9941 13.353C11.2387 13.4019 11.2998 13.6587 11.2998 13.781L11.6055 24.4203C11.4695 24.5902 12.0198 24.7736 11.7141 24.7736L2.52585 21.9055C2.02365 21.689 1.58595 21.53 1.52717 20.4922L1.52025 20.3701Z" fill="#F1F1F1" stroke="black"/>
<path d="M11.531 13.4008L12.0202 13.2171L21.012 9.7539C21.0923 9.72614 21.2533 9.73196 21.2533 9.97654C21.2533 9.85425 21.2376 9.58178 20.9476 9.48737L16.2395 8.05045L11.5314 6.61353C11.1645 6.55238 10.7976 6.55238 10.3696 6.67467L1.31993 9.9152C1.27917 9.95597 1.19764 10.1231 1.19764 10.4655C1.1976 10.3638 1.24644 10.1726 1.44215 10.2213L6.24225 11.811L11.0423 13.4008C11.0803 13.4194 11.1142 13.4351 11.1451 13.4477C11.2163 13.4951 11.2864 13.5778 11.2864 13.7062C11.3065 13.6461 11.3822 13.5025 11.5255 13.4045C11.5273 13.4033 11.5291 13.4021 11.531 13.4008Z" fill="#F1F1F1"/>
<path d="M11.531 13.4008L12.0202 13.2171L21.012 9.7539M11.531 13.4008C11.3596 13.5171 11.2786 13.5168 11.0423 13.4008M11.531 13.4008C11.3842 13.4989 11.3068 13.6453 11.2864 13.7062C11.2864 13.5106 11.1237 13.4211 11.0423 13.4008M11.0423 13.4008L6.24225 11.811M1.44215 10.2213C1.31758 10.1711 1.15551 10.1637 1.31993 9.9152M1.44215 10.2213C1.24644 10.1726 1.1976 10.3638 1.19764 10.4655C1.19764 10.1231 1.27917 9.95597 1.31993 9.9152M1.44215 10.2213L6.24225 11.811M1.31993 9.9152L10.3696 6.67467C10.7976 6.55238 11.1645 6.55238 11.5314 6.61353L16.2395 8.05045M20.9476 9.48737C21.0762 9.53949 21.1312 9.66387 21.0695 9.73176L21.012 9.7539M20.9476 9.48737C21.033 9.54432 21.1617 9.67377 21.012 9.7539M20.9476 9.48737C21.2376 9.58178 21.2533 9.85425 21.2533 9.97654C21.2533 9.73196 21.0923 9.72614 21.012 9.7539M20.9476 9.48737L21.0087 9.67081L20.6418 9.73176L20.703 9.54852L20.9476 9.48737ZM20.9476 9.48737L16.2395 8.05045M6.24225 11.811L16.2395 8.05045" stroke="black"/>
<path d="M8.89208 16.3767C8.89208 17.1193 8.40887 17.4826 7.97492 17.4162C7.54097 17.3498 7.28427 16.9882 7.42463 16.0711C7.51655 15.4702 7.72398 15.1537 8.28064 15.1538C8.7087 15.1539 8.95323 15.8264 8.89208 16.3767Z" fill="black"/>
<path d="M4.73388 15.0308C4.73388 15.7733 4.25066 16.1366 3.81671 16.0702C3.38276 16.0038 3.12606 15.6423 3.26643 14.7251C3.35835 14.1242 3.56577 13.8078 4.12244 13.8078C4.5505 13.8079 4.79503 14.4804 4.73388 15.0308Z" fill="black"/>
<path d="M4.06449 18.119C4.01558 17.9234 4.20716 17.7929 4.30907 17.7522C4.30907 17.7032 4.5254 17.7557 4.66808 17.7965C4.79037 17.9188 4.83902 18.119 4.8594 18.1802C5.05506 18.4737 5.26703 18.7101 5.34855 18.7916C5.59313 19.0362 5.89885 19.1789 6.02114 19.2197C6.26572 19.2686 6.48991 19.1993 6.57144 19.1585C6.86493 19.1096 7.34593 18.649 7.54974 18.4248C7.85547 18.2413 8.10004 18.4248 8.16119 18.4859C8.22233 18.5471 8.22233 18.8528 8.16119 19.0362C8.10004 19.2197 7.91661 19.3419 7.73318 19.5254C7.58643 19.6721 7.10135 19.9126 6.87716 20.0145C6.63258 20.0757 6.0456 20.1613 5.65427 20.0145C5.16512 19.8311 4.8594 19.5254 4.79825 19.4642C4.73711 19.4031 4.24796 18.7916 4.18681 18.6082C4.12567 18.4248 4.12564 18.3636 4.06449 18.119Z" fill="black" stroke="black"/>
</svg>
