<svg width="17" height="17" viewBox="0 0 17 17" fill="none" xmlns="http://www.w3.org/2000/svg">
<path fill-rule="evenodd" clip-rule="evenodd" d="M6.375 2.125C4.02779 2.125 2.125 4.02779 2.125 6.375C2.125 8.72221 4.02779 10.625 6.375 10.625C8.72221 10.625 10.625 8.72221 10.625 6.375C10.625 4.02779 8.72221 2.125 6.375 2.125ZM0 6.375C0 2.85418 2.85418 0 6.375 0C9.89581 0 12.75 2.85418 12.75 6.375C12.75 7.75182 12.3135 9.0267 11.5714 10.0688L16.6888 15.1862C17.1037 15.6011 17.1037 16.2739 16.6888 16.6888C16.2739 17.1037 15.6011 17.1037 15.1862 16.6888L10.0688 11.5714C9.0267 12.3135 7.75182 12.75 6.375 12.75C2.85418 12.75 0 9.89581 0 6.375Z" fill="#6D6D6D"/>
</svg>
