<svg width="12" height="12" viewBox="0 0 12 12" fill="none" xmlns="http://www.w3.org/2000/svg">
<path d="M0.766768 0.76586C0.883955 0.648818 1.04281 0.583077 1.20843 0.583077C1.37406 0.583077 1.53291 0.648818 1.6501 0.76586L6.0001 5.11586L10.3501 0.76586C10.4265 0.68359 10.5237 0.623447 10.6314 0.591769C10.7391 0.56009 10.8533 0.558049 10.9621 0.58586C11.0709 0.613671 11.1701 0.670305 11.2494 0.749794C11.3287 0.829284 11.3851 0.928685 11.4126 1.03753C11.4404 1.14617 11.4385 1.26032 11.407 1.36795C11.3754 1.47559 11.3155 1.57274 11.2334 1.64919L6.88344 5.99919L11.2334 10.3492C11.3157 10.4256 11.3758 10.5228 11.4075 10.6305C11.4392 10.7382 11.4412 10.8524 11.4134 10.9612C11.3856 11.07 11.329 11.1692 11.2495 11.2485C11.17 11.3278 11.0706 11.3842 10.9618 11.4117C10.8531 11.4395 10.739 11.4376 10.6313 11.4061C10.5237 11.3745 10.4266 11.3146 10.3501 11.2325L6.0001 6.88253L1.6501 11.2325C1.53155 11.3429 1.37484 11.403 1.21291 11.4002C1.05098 11.3974 0.896437 11.3319 0.781768 11.2175C0.667398 11.1029 0.601936 10.9483 0.599138 10.7864C0.596341 10.6245 0.656427 10.4677 0.766768 10.3492L5.11677 5.99919L0.766768 1.64919C0.649726 1.53201 0.583984 1.37315 0.583984 1.20753C0.583984 1.0419 0.649726 0.883048 0.766768 0.76586Z" fill="#0F172A"/>
</svg>
